<mxfile host="app.diagrams.net" agent="Mozilla/5.0 (Windows NT 10.0; Win64; x64) AppleWebKit/537.36 (KHTML, like Gecko) Chrome/134.0.0.0 Safari/537.36" version="26.1.1" pages="5">
  <diagram name="Page-1" id="HVsdyG7jGwptAvkJ2PGW">
    <mxGraphModel dx="1434" dy="738" grid="1" gridSize="10" guides="1" tooltips="1" connect="1" arrows="1" fold="1" page="1" pageScale="1" pageWidth="827" pageHeight="1169" math="0" shadow="0">
      <root>
        <mxCell id="0" />
        <mxCell id="1" parent="0" />
        <mxCell id="SPahQOCzuJfw9UeuZPHW-1" value="" style="ellipse;whiteSpace=wrap;html=1;" vertex="1" parent="1">
          <mxGeometry x="324" y="300" width="180" height="120" as="geometry" />
        </mxCell>
        <mxCell id="SPahQOCzuJfw9UeuZPHW-2" value="Service Registry" style="rounded=0;whiteSpace=wrap;html=1;" vertex="1" parent="1">
          <mxGeometry x="354" y="330" width="120" height="60" as="geometry" />
        </mxCell>
        <mxCell id="SPahQOCzuJfw9UeuZPHW-3" value="OSGI Framework Bundle" style="text;html=1;align=center;verticalAlign=middle;resizable=0;points=[];autosize=1;strokeColor=none;fillColor=none;" vertex="1" parent="1">
          <mxGeometry x="334" y="270" width="160" height="30" as="geometry" />
        </mxCell>
        <mxCell id="SPahQOCzuJfw9UeuZPHW-4" value="Publish the Service" style="text;html=1;align=center;verticalAlign=middle;resizable=0;points=[];autosize=1;strokeColor=none;fillColor=none;" vertex="1" parent="1">
          <mxGeometry x="60" y="60" width="130" height="30" as="geometry" />
        </mxCell>
        <mxCell id="SPahQOCzuJfw9UeuZPHW-5" value="Subscribe the Service" style="text;html=1;align=center;verticalAlign=middle;resizable=0;points=[];autosize=1;strokeColor=none;fillColor=none;" vertex="1" parent="1">
          <mxGeometry x="620" y="60" width="140" height="30" as="geometry" />
        </mxCell>
        <mxCell id="SPahQOCzuJfw9UeuZPHW-12" style="edgeStyle=orthogonalEdgeStyle;rounded=0;orthogonalLoop=1;jettySize=auto;html=1;exitX=1;exitY=0.5;exitDx=0;exitDy=0;entryX=0;entryY=0.5;entryDx=0;entryDy=0;" edge="1" parent="1" source="SPahQOCzuJfw9UeuZPHW-6" target="SPahQOCzuJfw9UeuZPHW-1">
          <mxGeometry relative="1" as="geometry" />
        </mxCell>
        <mxCell id="SPahQOCzuJfw9UeuZPHW-6" value="Admin Producer" style="ellipse;whiteSpace=wrap;html=1;" vertex="1" parent="1">
          <mxGeometry x="65" y="115" width="120" height="80" as="geometry" />
        </mxCell>
        <mxCell id="SPahQOCzuJfw9UeuZPHW-19" style="edgeStyle=orthogonalEdgeStyle;rounded=0;orthogonalLoop=1;jettySize=auto;html=1;exitX=0;exitY=0.5;exitDx=0;exitDy=0;entryX=1;entryY=0.5;entryDx=0;entryDy=0;" edge="1" parent="1" source="SPahQOCzuJfw9UeuZPHW-7" target="SPahQOCzuJfw9UeuZPHW-1">
          <mxGeometry relative="1" as="geometry" />
        </mxCell>
        <mxCell id="SPahQOCzuJfw9UeuZPHW-7" value="Admin Consumer" style="ellipse;whiteSpace=wrap;html=1;" vertex="1" parent="1">
          <mxGeometry x="630" y="190" width="120" height="80" as="geometry" />
        </mxCell>
        <mxCell id="SPahQOCzuJfw9UeuZPHW-13" style="edgeStyle=orthogonalEdgeStyle;rounded=0;orthogonalLoop=1;jettySize=auto;html=1;exitX=1;exitY=0.5;exitDx=0;exitDy=0;entryX=0;entryY=0.5;entryDx=0;entryDy=0;" edge="1" parent="1" source="SPahQOCzuJfw9UeuZPHW-8" target="SPahQOCzuJfw9UeuZPHW-1">
          <mxGeometry relative="1" as="geometry" />
        </mxCell>
        <mxCell id="SPahQOCzuJfw9UeuZPHW-8" value="Mixer Producer" style="ellipse;whiteSpace=wrap;html=1;" vertex="1" parent="1">
          <mxGeometry x="65" y="215" width="120" height="80" as="geometry" />
        </mxCell>
        <mxCell id="SPahQOCzuJfw9UeuZPHW-14" style="edgeStyle=orthogonalEdgeStyle;rounded=0;orthogonalLoop=1;jettySize=auto;html=1;exitX=1;exitY=0.5;exitDx=0;exitDy=0;entryX=0;entryY=0.5;entryDx=0;entryDy=0;" edge="1" parent="1" source="SPahQOCzuJfw9UeuZPHW-9" target="SPahQOCzuJfw9UeuZPHW-1">
          <mxGeometry relative="1" as="geometry" />
        </mxCell>
        <mxCell id="SPahQOCzuJfw9UeuZPHW-9" value="Customer Producer" style="ellipse;whiteSpace=wrap;html=1;" vertex="1" parent="1">
          <mxGeometry x="65" y="315" width="120" height="80" as="geometry" />
        </mxCell>
        <mxCell id="SPahQOCzuJfw9UeuZPHW-15" style="edgeStyle=orthogonalEdgeStyle;rounded=0;orthogonalLoop=1;jettySize=auto;html=1;exitX=1;exitY=0.5;exitDx=0;exitDy=0;entryX=0;entryY=0.5;entryDx=0;entryDy=0;" edge="1" parent="1" source="SPahQOCzuJfw9UeuZPHW-10" target="SPahQOCzuJfw9UeuZPHW-1">
          <mxGeometry relative="1" as="geometry" />
        </mxCell>
        <mxCell id="SPahQOCzuJfw9UeuZPHW-10" value="Order Producer" style="ellipse;whiteSpace=wrap;html=1;" vertex="1" parent="1">
          <mxGeometry x="65" y="420" width="120" height="80" as="geometry" />
        </mxCell>
        <mxCell id="SPahQOCzuJfw9UeuZPHW-16" style="edgeStyle=orthogonalEdgeStyle;rounded=0;orthogonalLoop=1;jettySize=auto;html=1;exitX=1;exitY=0.5;exitDx=0;exitDy=0;entryX=0;entryY=0.5;entryDx=0;entryDy=0;" edge="1" parent="1" source="SPahQOCzuJfw9UeuZPHW-11" target="SPahQOCzuJfw9UeuZPHW-1">
          <mxGeometry relative="1" as="geometry" />
        </mxCell>
        <mxCell id="SPahQOCzuJfw9UeuZPHW-11" value="Delivery Producer" style="ellipse;whiteSpace=wrap;html=1;" vertex="1" parent="1">
          <mxGeometry x="65" y="525" width="120" height="80" as="geometry" />
        </mxCell>
        <mxCell id="SPahQOCzuJfw9UeuZPHW-20" style="edgeStyle=orthogonalEdgeStyle;rounded=0;orthogonalLoop=1;jettySize=auto;html=1;exitX=0;exitY=0.5;exitDx=0;exitDy=0;entryX=1;entryY=0.5;entryDx=0;entryDy=0;" edge="1" parent="1" source="SPahQOCzuJfw9UeuZPHW-17" target="SPahQOCzuJfw9UeuZPHW-1">
          <mxGeometry relative="1" as="geometry" />
        </mxCell>
        <mxCell id="SPahQOCzuJfw9UeuZPHW-17" value="Custmer Consumer" style="ellipse;whiteSpace=wrap;html=1;" vertex="1" parent="1">
          <mxGeometry x="630" y="315" width="120" height="80" as="geometry" />
        </mxCell>
        <mxCell id="SPahQOCzuJfw9UeuZPHW-21" style="edgeStyle=orthogonalEdgeStyle;rounded=0;orthogonalLoop=1;jettySize=auto;html=1;exitX=0;exitY=0.5;exitDx=0;exitDy=0;entryX=1;entryY=0.5;entryDx=0;entryDy=0;" edge="1" parent="1" source="SPahQOCzuJfw9UeuZPHW-18" target="SPahQOCzuJfw9UeuZPHW-1">
          <mxGeometry relative="1" as="geometry" />
        </mxCell>
        <mxCell id="SPahQOCzuJfw9UeuZPHW-18" value="Delivery Consumer" style="ellipse;whiteSpace=wrap;html=1;" vertex="1" parent="1">
          <mxGeometry x="630" y="440" width="120" height="80" as="geometry" />
        </mxCell>
      </root>
    </mxGraphModel>
  </diagram>
  <diagram id="B4KYBr8EjBL4wrqHfAIQ" name="Page-2">
    <mxGraphModel dx="1434" dy="738" grid="1" gridSize="10" guides="1" tooltips="1" connect="1" arrows="1" fold="1" page="1" pageScale="1" pageWidth="827" pageHeight="1169" math="0" shadow="0">
      <root>
        <mxCell id="0" />
        <mxCell id="1" parent="0" />
        <mxCell id="2eIEd1OZYdI_fVjeqKHK-43" style="rounded=0;orthogonalLoop=1;jettySize=auto;html=1;exitX=1;exitY=0.5;exitDx=0;exitDy=0;startArrow=classic;startFill=1;entryX=0;entryY=0.5;entryDx=0;entryDy=0;" edge="1" parent="1" source="2eIEd1OZYdI_fVjeqKHK-28" target="2eIEd1OZYdI_fVjeqKHK-30">
          <mxGeometry relative="1" as="geometry" />
        </mxCell>
        <mxCell id="2eIEd1OZYdI_fVjeqKHK-28" value="Admin Producer" style="ellipse;whiteSpace=wrap;html=1;" vertex="1" parent="1">
          <mxGeometry x="75" y="125" width="120" height="80" as="geometry" />
        </mxCell>
        <mxCell id="2eIEd1OZYdI_fVjeqKHK-30" value="Admin Consumer" style="ellipse;whiteSpace=wrap;html=1;" vertex="1" parent="1">
          <mxGeometry x="640" y="200" width="120" height="80" as="geometry" />
        </mxCell>
        <mxCell id="2eIEd1OZYdI_fVjeqKHK-44" style="rounded=0;orthogonalLoop=1;jettySize=auto;html=1;exitX=1;exitY=0.5;exitDx=0;exitDy=0;entryX=0;entryY=0.5;entryDx=0;entryDy=0;startArrow=classic;startFill=1;" edge="1" parent="1" source="2eIEd1OZYdI_fVjeqKHK-32" target="2eIEd1OZYdI_fVjeqKHK-30">
          <mxGeometry relative="1" as="geometry" />
        </mxCell>
        <mxCell id="2eIEd1OZYdI_fVjeqKHK-46" style="rounded=0;orthogonalLoop=1;jettySize=auto;html=1;exitX=1;exitY=0.5;exitDx=0;exitDy=0;entryX=0;entryY=0.5;entryDx=0;entryDy=0;" edge="1" parent="1" source="2eIEd1OZYdI_fVjeqKHK-32" target="2eIEd1OZYdI_fVjeqKHK-40">
          <mxGeometry relative="1" as="geometry" />
        </mxCell>
        <mxCell id="2eIEd1OZYdI_fVjeqKHK-32" value="Mixer Producer" style="ellipse;whiteSpace=wrap;html=1;" vertex="1" parent="1">
          <mxGeometry x="75" y="225" width="120" height="80" as="geometry" />
        </mxCell>
        <mxCell id="2eIEd1OZYdI_fVjeqKHK-45" style="rounded=0;orthogonalLoop=1;jettySize=auto;html=1;entryX=0;entryY=0.5;entryDx=0;entryDy=0;startArrow=classic;startFill=1;" edge="1" parent="1" source="2eIEd1OZYdI_fVjeqKHK-34" target="2eIEd1OZYdI_fVjeqKHK-40">
          <mxGeometry relative="1" as="geometry" />
        </mxCell>
        <mxCell id="2eIEd1OZYdI_fVjeqKHK-34" value="Customer Producer" style="ellipse;whiteSpace=wrap;html=1;" vertex="1" parent="1">
          <mxGeometry x="75" y="325" width="120" height="80" as="geometry" />
        </mxCell>
        <mxCell id="2eIEd1OZYdI_fVjeqKHK-47" style="rounded=0;orthogonalLoop=1;jettySize=auto;html=1;exitX=1;exitY=0.5;exitDx=0;exitDy=0;entryX=0;entryY=0.5;entryDx=0;entryDy=0;startArrow=classic;startFill=1;" edge="1" parent="1" source="2eIEd1OZYdI_fVjeqKHK-36" target="2eIEd1OZYdI_fVjeqKHK-40">
          <mxGeometry relative="1" as="geometry" />
        </mxCell>
        <mxCell id="2eIEd1OZYdI_fVjeqKHK-36" value="Order Producer" style="ellipse;whiteSpace=wrap;html=1;" vertex="1" parent="1">
          <mxGeometry x="75" y="430" width="120" height="80" as="geometry" />
        </mxCell>
        <mxCell id="2eIEd1OZYdI_fVjeqKHK-48" style="rounded=0;orthogonalLoop=1;jettySize=auto;html=1;exitX=1;exitY=0.5;exitDx=0;exitDy=0;entryX=0;entryY=0.5;entryDx=0;entryDy=0;startArrow=classic;startFill=1;" edge="1" parent="1" source="2eIEd1OZYdI_fVjeqKHK-38" target="2eIEd1OZYdI_fVjeqKHK-42">
          <mxGeometry relative="1" as="geometry" />
        </mxCell>
        <mxCell id="2eIEd1OZYdI_fVjeqKHK-38" value="Delivery Producer" style="ellipse;whiteSpace=wrap;html=1;" vertex="1" parent="1">
          <mxGeometry x="75" y="535" width="120" height="80" as="geometry" />
        </mxCell>
        <mxCell id="2eIEd1OZYdI_fVjeqKHK-40" value="Customer Consumer" style="ellipse;whiteSpace=wrap;html=1;" vertex="1" parent="1">
          <mxGeometry x="640" y="325" width="120" height="80" as="geometry" />
        </mxCell>
        <mxCell id="2eIEd1OZYdI_fVjeqKHK-42" value="Delivery Consumer" style="ellipse;whiteSpace=wrap;html=1;" vertex="1" parent="1">
          <mxGeometry x="640" y="450" width="120" height="80" as="geometry" />
        </mxCell>
      </root>
    </mxGraphModel>
  </diagram>
  <diagram id="OsyzpftXhnL-47sUzfGt" name="Page-3">
    <mxGraphModel dx="1434" dy="738" grid="1" gridSize="10" guides="1" tooltips="1" connect="1" arrows="1" fold="1" page="1" pageScale="1" pageWidth="827" pageHeight="1169" math="0" shadow="0">
      <root>
        <mxCell id="0" />
        <mxCell id="1" parent="0" />
        <mxCell id="Lt1euYkx0p4f9RewEZyK-24" style="edgeStyle=orthogonalEdgeStyle;rounded=0;orthogonalLoop=1;jettySize=auto;html=1;exitX=0.5;exitY=1;exitDx=0;exitDy=0;entryX=0.5;entryY=0;entryDx=0;entryDy=0;" edge="1" parent="1" source="Lt1euYkx0p4f9RewEZyK-20" target="Lt1euYkx0p4f9RewEZyK-21">
          <mxGeometry relative="1" as="geometry" />
        </mxCell>
        <mxCell id="Lt1euYkx0p4f9RewEZyK-20" value="Start" style="ellipse;whiteSpace=wrap;html=1;" vertex="1" parent="1">
          <mxGeometry x="70" y="70" width="120" height="40" as="geometry" />
        </mxCell>
        <mxCell id="Lt1euYkx0p4f9RewEZyK-25" style="edgeStyle=orthogonalEdgeStyle;rounded=0;orthogonalLoop=1;jettySize=auto;html=1;exitX=1;exitY=0.5;exitDx=0;exitDy=0;" edge="1" parent="1" source="Lt1euYkx0p4f9RewEZyK-21" target="Lt1euYkx0p4f9RewEZyK-22">
          <mxGeometry relative="1" as="geometry" />
        </mxCell>
        <mxCell id="Lt1euYkx0p4f9RewEZyK-26" style="edgeStyle=orthogonalEdgeStyle;rounded=0;orthogonalLoop=1;jettySize=auto;html=1;exitX=0.5;exitY=1;exitDx=0;exitDy=0;entryX=0.5;entryY=0;entryDx=0;entryDy=0;" edge="1" parent="1" source="Lt1euYkx0p4f9RewEZyK-21" target="Lt1euYkx0p4f9RewEZyK-23">
          <mxGeometry relative="1" as="geometry" />
        </mxCell>
        <mxCell id="Lt1euYkx0p4f9RewEZyK-21" value="Have an account" style="rhombus;whiteSpace=wrap;html=1;" vertex="1" parent="1">
          <mxGeometry x="90" y="180" width="80" height="80" as="geometry" />
        </mxCell>
        <mxCell id="Lt1euYkx0p4f9RewEZyK-33" style="edgeStyle=orthogonalEdgeStyle;rounded=0;orthogonalLoop=1;jettySize=auto;html=1;exitX=1;exitY=0.5;exitDx=0;exitDy=0;entryX=0.5;entryY=0;entryDx=0;entryDy=0;" edge="1" parent="1" source="Lt1euYkx0p4f9RewEZyK-22" target="Lt1euYkx0p4f9RewEZyK-21">
          <mxGeometry relative="1" as="geometry">
            <Array as="points">
              <mxPoint x="390" y="220" />
              <mxPoint x="390" y="180" />
            </Array>
          </mxGeometry>
        </mxCell>
        <mxCell id="Lt1euYkx0p4f9RewEZyK-22" value="Register" style="rounded=0;whiteSpace=wrap;html=1;" vertex="1" parent="1">
          <mxGeometry x="250" y="190" width="120" height="60" as="geometry" />
        </mxCell>
        <mxCell id="Lt1euYkx0p4f9RewEZyK-39" style="edgeStyle=orthogonalEdgeStyle;rounded=0;orthogonalLoop=1;jettySize=auto;html=1;exitX=1;exitY=0.5;exitDx=0;exitDy=0;entryX=0;entryY=0.5;entryDx=0;entryDy=0;" edge="1" parent="1" source="Lt1euYkx0p4f9RewEZyK-23" target="Lt1euYkx0p4f9RewEZyK-31">
          <mxGeometry relative="1" as="geometry" />
        </mxCell>
        <mxCell id="Lt1euYkx0p4f9RewEZyK-23" value="Login" style="rounded=0;whiteSpace=wrap;html=1;" vertex="1" parent="1">
          <mxGeometry x="70" y="320" width="120" height="60" as="geometry" />
        </mxCell>
        <mxCell id="Lt1euYkx0p4f9RewEZyK-27" value="No" style="text;html=1;align=center;verticalAlign=middle;resizable=0;points=[];autosize=1;strokeColor=none;fillColor=none;" vertex="1" parent="1">
          <mxGeometry x="190" y="188" width="40" height="30" as="geometry" />
        </mxCell>
        <mxCell id="Lt1euYkx0p4f9RewEZyK-28" value="Yes" style="text;html=1;align=center;verticalAlign=middle;resizable=0;points=[];autosize=1;strokeColor=none;fillColor=none;" vertex="1" parent="1">
          <mxGeometry x="150" y="268" width="40" height="30" as="geometry" />
        </mxCell>
        <mxCell id="Lt1euYkx0p4f9RewEZyK-44" style="edgeStyle=orthogonalEdgeStyle;rounded=0;orthogonalLoop=1;jettySize=auto;html=1;exitX=1;exitY=0.5;exitDx=0;exitDy=0;entryX=0;entryY=0.5;entryDx=0;entryDy=0;" edge="1" parent="1" source="Lt1euYkx0p4f9RewEZyK-31" target="Lt1euYkx0p4f9RewEZyK-43">
          <mxGeometry relative="1" as="geometry" />
        </mxCell>
        <mxCell id="Lt1euYkx0p4f9RewEZyK-31" value="Show Paint&amp;nbsp;&lt;div&gt;Mixer List&lt;/div&gt;" style="shape=parallelogram;perimeter=parallelogramPerimeter;whiteSpace=wrap;html=1;fixedSize=1;" vertex="1" parent="1">
          <mxGeometry x="260" y="320" width="120" height="60" as="geometry" />
        </mxCell>
        <mxCell id="Lt1euYkx0p4f9RewEZyK-37" style="edgeStyle=orthogonalEdgeStyle;rounded=0;orthogonalLoop=1;jettySize=auto;html=1;exitX=0;exitY=0.5;exitDx=0;exitDy=0;entryX=0;entryY=0.5;entryDx=0;entryDy=0;" edge="1" parent="1" source="Lt1euYkx0p4f9RewEZyK-35" target="Lt1euYkx0p4f9RewEZyK-21">
          <mxGeometry relative="1" as="geometry">
            <Array as="points">
              <mxPoint x="20" y="450" />
              <mxPoint x="20" y="220" />
            </Array>
          </mxGeometry>
        </mxCell>
        <mxCell id="Lt1euYkx0p4f9RewEZyK-35" value="Is Login&amp;nbsp;&lt;br&gt;success" style="rhombus;whiteSpace=wrap;html=1;" vertex="1" parent="1">
          <mxGeometry x="90" y="410" width="80" height="80" as="geometry" />
        </mxCell>
        <mxCell id="Lt1euYkx0p4f9RewEZyK-36" style="edgeStyle=orthogonalEdgeStyle;rounded=0;orthogonalLoop=1;jettySize=auto;html=1;exitX=0.5;exitY=1;exitDx=0;exitDy=0;entryX=0.5;entryY=0.088;entryDx=0;entryDy=0;entryPerimeter=0;" edge="1" parent="1" source="Lt1euYkx0p4f9RewEZyK-23" target="Lt1euYkx0p4f9RewEZyK-35">
          <mxGeometry relative="1" as="geometry" />
        </mxCell>
        <mxCell id="Lt1euYkx0p4f9RewEZyK-38" value="False" style="text;html=1;align=center;verticalAlign=middle;resizable=0;points=[];autosize=1;strokeColor=none;fillColor=none;" vertex="1" parent="1">
          <mxGeometry x="35" y="398" width="50" height="30" as="geometry" />
        </mxCell>
        <mxCell id="Lt1euYkx0p4f9RewEZyK-40" value="True" style="text;html=1;align=center;verticalAlign=middle;resizable=0;points=[];autosize=1;strokeColor=none;fillColor=none;" vertex="1" parent="1">
          <mxGeometry x="215" y="318" width="50" height="30" as="geometry" />
        </mxCell>
        <mxCell id="Lt1euYkx0p4f9RewEZyK-45" style="edgeStyle=orthogonalEdgeStyle;rounded=0;orthogonalLoop=1;jettySize=auto;html=1;exitX=1;exitY=0.5;exitDx=0;exitDy=0;entryX=0;entryY=0.5;entryDx=0;entryDy=0;" edge="1" parent="1" source="Lt1euYkx0p4f9RewEZyK-43" target="Lt1euYkx0p4f9RewEZyK-50">
          <mxGeometry relative="1" as="geometry">
            <mxPoint x="560" y="350" as="targetPoint" />
          </mxGeometry>
        </mxCell>
        <mxCell id="Lt1euYkx0p4f9RewEZyK-48" style="edgeStyle=orthogonalEdgeStyle;rounded=0;orthogonalLoop=1;jettySize=auto;html=1;entryX=0.5;entryY=0;entryDx=0;entryDy=0;" edge="1" parent="1" target="Lt1euYkx0p4f9RewEZyK-59">
          <mxGeometry relative="1" as="geometry">
            <mxPoint x="470" y="390" as="sourcePoint" />
            <mxPoint x="470" y="490" as="targetPoint" />
          </mxGeometry>
        </mxCell>
        <mxCell id="Lt1euYkx0p4f9RewEZyK-43" value="Want order&amp;nbsp;&lt;div&gt;Paint&lt;/div&gt;" style="rhombus;whiteSpace=wrap;html=1;" vertex="1" parent="1">
          <mxGeometry x="430" y="310" width="80" height="80" as="geometry" />
        </mxCell>
        <mxCell id="Lt1euYkx0p4f9RewEZyK-46" value="Yes" style="text;html=1;align=center;verticalAlign=middle;resizable=0;points=[];autosize=1;strokeColor=none;fillColor=none;" vertex="1" parent="1">
          <mxGeometry x="510" y="310" width="40" height="30" as="geometry" />
        </mxCell>
        <mxCell id="Lt1euYkx0p4f9RewEZyK-49" value="No" style="text;html=1;align=center;verticalAlign=middle;resizable=0;points=[];autosize=1;strokeColor=none;fillColor=none;" vertex="1" parent="1">
          <mxGeometry x="480" y="390" width="40" height="30" as="geometry" />
        </mxCell>
        <mxCell id="Lt1euYkx0p4f9RewEZyK-56" style="edgeStyle=orthogonalEdgeStyle;rounded=0;orthogonalLoop=1;jettySize=auto;html=1;exitX=1;exitY=0.5;exitDx=0;exitDy=0;entryX=0;entryY=0.5;entryDx=0;entryDy=0;" edge="1" parent="1" source="Lt1euYkx0p4f9RewEZyK-50" target="Lt1euYkx0p4f9RewEZyK-53">
          <mxGeometry relative="1" as="geometry" />
        </mxCell>
        <mxCell id="Lt1euYkx0p4f9RewEZyK-50" value="Enter Paint&amp;nbsp;&lt;div&gt;Color Code&lt;/div&gt;" style="shape=parallelogram;perimeter=parallelogramPerimeter;whiteSpace=wrap;html=1;fixedSize=1;" vertex="1" parent="1">
          <mxGeometry x="570" y="318" width="120" height="60" as="geometry" />
        </mxCell>
        <mxCell id="Lt1euYkx0p4f9RewEZyK-52" style="edgeStyle=orthogonalEdgeStyle;rounded=0;orthogonalLoop=1;jettySize=auto;html=1;" edge="1" parent="1" source="Lt1euYkx0p4f9RewEZyK-51" target="Lt1euYkx0p4f9RewEZyK-31">
          <mxGeometry relative="1" as="geometry">
            <Array as="points">
              <mxPoint x="320" y="300" />
              <mxPoint x="320" y="300" />
            </Array>
          </mxGeometry>
        </mxCell>
        <mxCell id="Lt1euYkx0p4f9RewEZyK-51" value="paints" style="shape=document;whiteSpace=wrap;html=1;boundedLbl=1;" vertex="1" parent="1">
          <mxGeometry x="285" y="260" width="70" height="30" as="geometry" />
        </mxCell>
        <mxCell id="Lt1euYkx0p4f9RewEZyK-57" style="edgeStyle=orthogonalEdgeStyle;rounded=0;orthogonalLoop=1;jettySize=auto;html=1;exitX=1;exitY=0.5;exitDx=0;exitDy=0;entryX=0.5;entryY=0;entryDx=0;entryDy=0;" edge="1" parent="1" source="Lt1euYkx0p4f9RewEZyK-53" target="Lt1euYkx0p4f9RewEZyK-43">
          <mxGeometry relative="1" as="geometry">
            <Array as="points">
              <mxPoint x="860" y="350" />
              <mxPoint x="860" y="230" />
              <mxPoint x="470" y="230" />
            </Array>
          </mxGeometry>
        </mxCell>
        <mxCell id="Lt1euYkx0p4f9RewEZyK-53" value="Add to bill" style="rounded=0;whiteSpace=wrap;html=1;" vertex="1" parent="1">
          <mxGeometry x="720" y="320" width="120" height="60" as="geometry" />
        </mxCell>
        <mxCell id="Lt1euYkx0p4f9RewEZyK-55" value="" style="edgeStyle=orthogonalEdgeStyle;rounded=0;orthogonalLoop=1;jettySize=auto;html=1;" edge="1" parent="1" source="Lt1euYkx0p4f9RewEZyK-54" target="Lt1euYkx0p4f9RewEZyK-53">
          <mxGeometry relative="1" as="geometry" />
        </mxCell>
        <mxCell id="Lt1euYkx0p4f9RewEZyK-54" value="cutomer bill" style="shape=document;whiteSpace=wrap;html=1;boundedLbl=1;" vertex="1" parent="1">
          <mxGeometry x="745" y="268" width="70" height="30" as="geometry" />
        </mxCell>
        <mxCell id="Lt1euYkx0p4f9RewEZyK-62" style="edgeStyle=orthogonalEdgeStyle;rounded=0;orthogonalLoop=1;jettySize=auto;html=1;exitX=1;exitY=0.5;exitDx=0;exitDy=0;entryX=0.5;entryY=0;entryDx=0;entryDy=0;" edge="1" parent="1" source="Lt1euYkx0p4f9RewEZyK-58" target="Lt1euYkx0p4f9RewEZyK-61">
          <mxGeometry relative="1" as="geometry" />
        </mxCell>
        <mxCell id="Lt1euYkx0p4f9RewEZyK-70" style="edgeStyle=orthogonalEdgeStyle;rounded=0;orthogonalLoop=1;jettySize=auto;html=1;entryX=0.5;entryY=0;entryDx=0;entryDy=0;" edge="1" parent="1" source="Lt1euYkx0p4f9RewEZyK-58" target="Lt1euYkx0p4f9RewEZyK-66">
          <mxGeometry relative="1" as="geometry">
            <Array as="points">
              <mxPoint x="780" y="600" />
              <mxPoint x="430" y="600" />
            </Array>
          </mxGeometry>
        </mxCell>
        <mxCell id="Lt1euYkx0p4f9RewEZyK-58" value="Add to bill register" style="rounded=0;whiteSpace=wrap;html=1;" vertex="1" parent="1">
          <mxGeometry x="720" y="428" width="120" height="60" as="geometry" />
        </mxCell>
        <mxCell id="Lt1euYkx0p4f9RewEZyK-64" style="edgeStyle=orthogonalEdgeStyle;rounded=0;orthogonalLoop=1;jettySize=auto;html=1;exitX=1;exitY=0.5;exitDx=0;exitDy=0;entryX=0;entryY=0.5;entryDx=0;entryDy=0;" edge="1" parent="1" source="Lt1euYkx0p4f9RewEZyK-59" target="Lt1euYkx0p4f9RewEZyK-63">
          <mxGeometry relative="1" as="geometry" />
        </mxCell>
        <mxCell id="Lt1euYkx0p4f9RewEZyK-67" style="edgeStyle=orthogonalEdgeStyle;rounded=0;orthogonalLoop=1;jettySize=auto;html=1;exitX=0.5;exitY=1;exitDx=0;exitDy=0;entryX=0.5;entryY=0;entryDx=0;entryDy=0;" edge="1" parent="1" source="Lt1euYkx0p4f9RewEZyK-59" target="Lt1euYkx0p4f9RewEZyK-66">
          <mxGeometry relative="1" as="geometry" />
        </mxCell>
        <mxCell id="Lt1euYkx0p4f9RewEZyK-59" value="if customer bill have items" style="rhombus;whiteSpace=wrap;html=1;" vertex="1" parent="1">
          <mxGeometry x="430" y="418" width="80" height="80" as="geometry" />
        </mxCell>
        <mxCell id="Lt1euYkx0p4f9RewEZyK-61" value="Bill register" style="shape=document;whiteSpace=wrap;html=1;boundedLbl=1;size=0.3333333333333333;" vertex="1" parent="1">
          <mxGeometry x="840" y="510" width="70" height="30" as="geometry" />
        </mxCell>
        <mxCell id="Lt1euYkx0p4f9RewEZyK-65" style="edgeStyle=orthogonalEdgeStyle;rounded=0;orthogonalLoop=1;jettySize=auto;html=1;exitX=1;exitY=0.5;exitDx=0;exitDy=0;entryX=0;entryY=0.5;entryDx=0;entryDy=0;" edge="1" parent="1" source="Lt1euYkx0p4f9RewEZyK-63" target="Lt1euYkx0p4f9RewEZyK-58">
          <mxGeometry relative="1" as="geometry" />
        </mxCell>
        <mxCell id="Lt1euYkx0p4f9RewEZyK-63" value="Want deliver" style="shape=parallelogram;perimeter=parallelogramPerimeter;whiteSpace=wrap;html=1;fixedSize=1;" vertex="1" parent="1">
          <mxGeometry x="540" y="428" width="120" height="60" as="geometry" />
        </mxCell>
        <mxCell id="Lt1euYkx0p4f9RewEZyK-66" value="End" style="ellipse;whiteSpace=wrap;html=1;" vertex="1" parent="1">
          <mxGeometry x="370" y="580" width="120" height="40" as="geometry" />
        </mxCell>
        <mxCell id="Lt1euYkx0p4f9RewEZyK-68" value="False" style="text;html=1;align=center;verticalAlign=middle;resizable=0;points=[];autosize=1;strokeColor=none;fillColor=none;" vertex="1" parent="1">
          <mxGeometry x="470" y="520" width="50" height="30" as="geometry" />
        </mxCell>
        <mxCell id="Lt1euYkx0p4f9RewEZyK-69" value="True" style="text;html=1;align=center;verticalAlign=middle;resizable=0;points=[];autosize=1;strokeColor=none;fillColor=none;" vertex="1" parent="1">
          <mxGeometry x="495" y="428" width="50" height="30" as="geometry" />
        </mxCell>
      </root>
    </mxGraphModel>
  </diagram>
  <diagram id="SAn8ezVByJjfyt6Jvisj" name="Page-4">
    <mxGraphModel dx="1434" dy="738" grid="1" gridSize="10" guides="1" tooltips="1" connect="1" arrows="1" fold="1" page="1" pageScale="1" pageWidth="827" pageHeight="1169" math="0" shadow="0">
      <root>
        <mxCell id="0" />
        <mxCell id="1" parent="0" />
        <mxCell id="qkjo4O6tpltfuf1IFRBO-47" value="" style="edgeStyle=orthogonalEdgeStyle;rounded=0;orthogonalLoop=1;jettySize=auto;html=1;" edge="1" parent="1" source="qkjo4O6tpltfuf1IFRBO-2" target="qkjo4O6tpltfuf1IFRBO-44">
          <mxGeometry relative="1" as="geometry" />
        </mxCell>
        <mxCell id="qkjo4O6tpltfuf1IFRBO-2" value="Start" style="ellipse;whiteSpace=wrap;html=1;" vertex="1" parent="1">
          <mxGeometry x="260" y="130" width="120" height="40" as="geometry" />
        </mxCell>
        <mxCell id="qkjo4O6tpltfuf1IFRBO-57" style="edgeStyle=orthogonalEdgeStyle;rounded=0;orthogonalLoop=1;jettySize=auto;html=1;exitX=0.5;exitY=0;exitDx=0;exitDy=0;" edge="1" parent="1" source="qkjo4O6tpltfuf1IFRBO-7" target="qkjo4O6tpltfuf1IFRBO-45">
          <mxGeometry relative="1" as="geometry" />
        </mxCell>
        <mxCell id="qkjo4O6tpltfuf1IFRBO-58" style="edgeStyle=orthogonalEdgeStyle;rounded=0;orthogonalLoop=1;jettySize=auto;html=1;exitX=1;exitY=0.5;exitDx=0;exitDy=0;entryX=0.5;entryY=0;entryDx=0;entryDy=0;" edge="1" parent="1" source="qkjo4O6tpltfuf1IFRBO-7" target="qkjo4O6tpltfuf1IFRBO-44">
          <mxGeometry relative="1" as="geometry">
            <Array as="points">
              <mxPoint x="660" y="440" />
              <mxPoint x="660" y="190" />
              <mxPoint x="320" y="190" />
            </Array>
          </mxGeometry>
        </mxCell>
        <mxCell id="qkjo4O6tpltfuf1IFRBO-7" value="Register" style="rounded=0;whiteSpace=wrap;html=1;" vertex="1" parent="1">
          <mxGeometry x="495" y="410" width="120" height="60" as="geometry" />
        </mxCell>
        <mxCell id="qkjo4O6tpltfuf1IFRBO-49" style="edgeStyle=orthogonalEdgeStyle;rounded=0;orthogonalLoop=1;jettySize=auto;html=1;exitX=0.5;exitY=1;exitDx=0;exitDy=0;" edge="1" parent="1" source="qkjo4O6tpltfuf1IFRBO-44" target="qkjo4O6tpltfuf1IFRBO-48">
          <mxGeometry relative="1" as="geometry" />
        </mxCell>
        <mxCell id="qkjo4O6tpltfuf1IFRBO-60" style="edgeStyle=orthogonalEdgeStyle;rounded=0;orthogonalLoop=1;jettySize=auto;html=1;exitX=0;exitY=0.5;exitDx=0;exitDy=0;entryX=1;entryY=0.75;entryDx=0;entryDy=0;" edge="1" parent="1" source="qkjo4O6tpltfuf1IFRBO-44" target="qkjo4O6tpltfuf1IFRBO-59">
          <mxGeometry relative="1" as="geometry" />
        </mxCell>
        <mxCell id="qkjo4O6tpltfuf1IFRBO-44" value="Choose Option" style="rhombus;whiteSpace=wrap;html=1;" vertex="1" parent="1">
          <mxGeometry x="280" y="210" width="80" height="80" as="geometry" />
        </mxCell>
        <mxCell id="qkjo4O6tpltfuf1IFRBO-45" value="Driver" style="shape=document;whiteSpace=wrap;html=1;boundedLbl=1;" vertex="1" parent="1">
          <mxGeometry x="545" y="338" width="70" height="30" as="geometry" />
        </mxCell>
        <mxCell id="qkjo4O6tpltfuf1IFRBO-48" value="End" style="ellipse;whiteSpace=wrap;html=1;" vertex="1" parent="1">
          <mxGeometry x="260" y="510" width="120" height="40" as="geometry" />
        </mxCell>
        <mxCell id="qkjo4O6tpltfuf1IFRBO-50" value="Exit" style="text;html=1;align=center;verticalAlign=middle;resizable=0;points=[];autosize=1;strokeColor=none;fillColor=none;" vertex="1" parent="1">
          <mxGeometry x="320" y="368" width="40" height="30" as="geometry" />
        </mxCell>
        <mxCell id="qkjo4O6tpltfuf1IFRBO-55" style="edgeStyle=orthogonalEdgeStyle;rounded=0;orthogonalLoop=1;jettySize=auto;html=1;exitX=0.5;exitY=1;exitDx=0;exitDy=0;entryX=0;entryY=0.5;entryDx=0;entryDy=0;" edge="1" parent="1" source="qkjo4O6tpltfuf1IFRBO-51" target="qkjo4O6tpltfuf1IFRBO-7">
          <mxGeometry relative="1" as="geometry" />
        </mxCell>
        <mxCell id="qkjo4O6tpltfuf1IFRBO-51" value="Delivery User Register Inputs" style="shape=parallelogram;perimeter=parallelogramPerimeter;whiteSpace=wrap;html=1;fixedSize=1;" vertex="1" parent="1">
          <mxGeometry x="414" y="260" width="120" height="60" as="geometry" />
        </mxCell>
        <mxCell id="qkjo4O6tpltfuf1IFRBO-52" style="edgeStyle=orthogonalEdgeStyle;rounded=0;orthogonalLoop=1;jettySize=auto;html=1;entryX=0;entryY=0.75;entryDx=0;entryDy=0;" edge="1" parent="1" source="qkjo4O6tpltfuf1IFRBO-44" target="qkjo4O6tpltfuf1IFRBO-51">
          <mxGeometry relative="1" as="geometry" />
        </mxCell>
        <mxCell id="qkjo4O6tpltfuf1IFRBO-53" value="Add new delivery user" style="text;html=1;align=center;verticalAlign=middle;resizable=0;points=[];autosize=1;strokeColor=none;fillColor=none;" vertex="1" parent="1">
          <mxGeometry x="360" y="210" width="140" height="30" as="geometry" />
        </mxCell>
        <mxCell id="qkjo4O6tpltfuf1IFRBO-59" value="Paint Mixer&lt;div&gt;create&lt;br&gt;&lt;div&gt;Inputs&lt;/div&gt;&lt;/div&gt;" style="shape=parallelogram;perimeter=parallelogramPerimeter;whiteSpace=wrap;html=1;fixedSize=1;" vertex="1" parent="1">
          <mxGeometry x="110" y="260" width="120" height="60" as="geometry" />
        </mxCell>
        <mxCell id="qkjo4O6tpltfuf1IFRBO-61" value="Add new paint mixer" style="text;html=1;align=center;verticalAlign=middle;resizable=0;points=[];autosize=1;strokeColor=none;fillColor=none;" vertex="1" parent="1">
          <mxGeometry x="155" y="210" width="130" height="30" as="geometry" />
        </mxCell>
        <mxCell id="qkjo4O6tpltfuf1IFRBO-64" style="edgeStyle=orthogonalEdgeStyle;rounded=0;orthogonalLoop=1;jettySize=auto;html=1;exitX=0;exitY=0.5;exitDx=0;exitDy=0;entryX=0.5;entryY=0;entryDx=0;entryDy=0;" edge="1" parent="1" source="qkjo4O6tpltfuf1IFRBO-62" target="qkjo4O6tpltfuf1IFRBO-44">
          <mxGeometry relative="1" as="geometry" />
        </mxCell>
        <mxCell id="qkjo4O6tpltfuf1IFRBO-62" value="Create new Paint mixer" style="rounded=0;whiteSpace=wrap;html=1;" vertex="1" parent="1">
          <mxGeometry x="100" y="410" width="120" height="60" as="geometry" />
        </mxCell>
        <mxCell id="qkjo4O6tpltfuf1IFRBO-63" style="edgeStyle=orthogonalEdgeStyle;rounded=0;orthogonalLoop=1;jettySize=auto;html=1;exitX=0.5;exitY=1;exitDx=0;exitDy=0;entryX=0.583;entryY=0;entryDx=0;entryDy=0;entryPerimeter=0;" edge="1" parent="1" source="qkjo4O6tpltfuf1IFRBO-59" target="qkjo4O6tpltfuf1IFRBO-62">
          <mxGeometry relative="1" as="geometry">
            <Array as="points" />
          </mxGeometry>
        </mxCell>
        <mxCell id="qkjo4O6tpltfuf1IFRBO-65" value="paints" style="shape=document;whiteSpace=wrap;html=1;boundedLbl=1;" vertex="1" parent="1">
          <mxGeometry x="210" y="360" width="70" height="30" as="geometry" />
        </mxCell>
        <mxCell id="qkjo4O6tpltfuf1IFRBO-67" style="edgeStyle=orthogonalEdgeStyle;rounded=0;orthogonalLoop=1;jettySize=auto;html=1;exitX=1;exitY=0.5;exitDx=0;exitDy=0;entryX=0.586;entryY=0.833;entryDx=0;entryDy=0;entryPerimeter=0;" edge="1" parent="1" source="qkjo4O6tpltfuf1IFRBO-62" target="qkjo4O6tpltfuf1IFRBO-65">
          <mxGeometry relative="1" as="geometry" />
        </mxCell>
      </root>
    </mxGraphModel>
  </diagram>
  <diagram id="Hkve_39dGwMneB4fg5Ih" name="Page-5">
    <mxGraphModel dx="1434" dy="738" grid="1" gridSize="10" guides="1" tooltips="1" connect="1" arrows="1" fold="1" page="1" pageScale="1" pageWidth="827" pageHeight="1169" math="0" shadow="0">
      <root>
        <mxCell id="0" />
        <mxCell id="1" parent="0" />
        <mxCell id="qgnY1FMfyowIgPnsiPWn-2" style="edgeStyle=orthogonalEdgeStyle;rounded=0;orthogonalLoop=1;jettySize=auto;html=1;entryX=0.5;entryY=0;entryDx=0;entryDy=0;" edge="1" parent="1" source="RfE0AXelOkWSYNEmpuoV-1" target="qgnY1FMfyowIgPnsiPWn-1">
          <mxGeometry relative="1" as="geometry" />
        </mxCell>
        <mxCell id="RfE0AXelOkWSYNEmpuoV-1" value="Start" style="ellipse;whiteSpace=wrap;html=1;" vertex="1" parent="1">
          <mxGeometry x="80" y="60" width="120" height="40" as="geometry" />
        </mxCell>
        <mxCell id="qgnY1FMfyowIgPnsiPWn-4" style="edgeStyle=orthogonalEdgeStyle;rounded=0;orthogonalLoop=1;jettySize=auto;html=1;exitX=0.5;exitY=1;exitDx=0;exitDy=0;entryX=0.5;entryY=0;entryDx=0;entryDy=0;" edge="1" parent="1" source="qgnY1FMfyowIgPnsiPWn-1" target="qgnY1FMfyowIgPnsiPWn-3">
          <mxGeometry relative="1" as="geometry" />
        </mxCell>
        <mxCell id="qgnY1FMfyowIgPnsiPWn-1" value="Login" style="rounded=0;whiteSpace=wrap;html=1;" vertex="1" parent="1">
          <mxGeometry x="80" y="140" width="120" height="60" as="geometry" />
        </mxCell>
        <mxCell id="qgnY1FMfyowIgPnsiPWn-5" style="edgeStyle=orthogonalEdgeStyle;rounded=0;orthogonalLoop=1;jettySize=auto;html=1;entryX=0;entryY=0.5;entryDx=0;entryDy=0;" edge="1" parent="1" source="qgnY1FMfyowIgPnsiPWn-3" target="qgnY1FMfyowIgPnsiPWn-1">
          <mxGeometry relative="1" as="geometry">
            <Array as="points">
              <mxPoint x="60" y="280" />
              <mxPoint x="60" y="170" />
            </Array>
          </mxGeometry>
        </mxCell>
        <mxCell id="qgnY1FMfyowIgPnsiPWn-8" style="edgeStyle=orthogonalEdgeStyle;rounded=0;orthogonalLoop=1;jettySize=auto;html=1;exitX=0.5;exitY=1;exitDx=0;exitDy=0;entryX=0.5;entryY=0;entryDx=0;entryDy=0;" edge="1" parent="1" source="qgnY1FMfyowIgPnsiPWn-3" target="qgnY1FMfyowIgPnsiPWn-7">
          <mxGeometry relative="1" as="geometry" />
        </mxCell>
        <mxCell id="qgnY1FMfyowIgPnsiPWn-3" value="Validate&lt;div&gt;login&lt;/div&gt;" style="rhombus;whiteSpace=wrap;html=1;" vertex="1" parent="1">
          <mxGeometry x="100" y="240" width="80" height="80" as="geometry" />
        </mxCell>
        <mxCell id="qgnY1FMfyowIgPnsiPWn-6" value="false" style="text;html=1;align=center;verticalAlign=middle;resizable=0;points=[];autosize=1;strokeColor=none;fillColor=none;" vertex="1" parent="1">
          <mxGeometry x="55" y="228" width="50" height="30" as="geometry" />
        </mxCell>
        <mxCell id="qgnY1FMfyowIgPnsiPWn-11" style="edgeStyle=orthogonalEdgeStyle;rounded=0;orthogonalLoop=1;jettySize=auto;html=1;exitX=0.5;exitY=1;exitDx=0;exitDy=0;entryX=0.5;entryY=0;entryDx=0;entryDy=0;" edge="1" parent="1" source="qgnY1FMfyowIgPnsiPWn-7" target="qgnY1FMfyowIgPnsiPWn-9">
          <mxGeometry relative="1" as="geometry" />
        </mxCell>
        <mxCell id="qgnY1FMfyowIgPnsiPWn-7" value="Show Deliver&amp;nbsp;&lt;div&gt;pending orders&lt;/div&gt;" style="shape=parallelogram;perimeter=parallelogramPerimeter;whiteSpace=wrap;html=1;fixedSize=1;" vertex="1" parent="1">
          <mxGeometry x="80" y="380" width="120" height="50" as="geometry" />
        </mxCell>
        <mxCell id="qgnY1FMfyowIgPnsiPWn-9" value="End" style="ellipse;whiteSpace=wrap;html=1;" vertex="1" parent="1">
          <mxGeometry x="80" y="470" width="120" height="40" as="geometry" />
        </mxCell>
        <mxCell id="qgnY1FMfyowIgPnsiPWn-10" value="true" style="text;html=1;align=center;verticalAlign=middle;resizable=0;points=[];autosize=1;strokeColor=none;fillColor=none;" vertex="1" parent="1">
          <mxGeometry x="150" y="328" width="40" height="30" as="geometry" />
        </mxCell>
      </root>
    </mxGraphModel>
  </diagram>
</mxfile>
